<mxfile host="Electron" modified="2023-04-12T17:15:41.051Z" agent="Mozilla/5.0 (Windows NT 10.0; Win64; x64) AppleWebKit/537.36 (KHTML, like Gecko) draw.io/21.1.2 Chrome/106.0.5249.199 Electron/21.4.3 Safari/537.36" etag="MTrFujqz1yY6Uz9A9Z4R" version="21.1.2" type="device">
  <diagram name="PÃ¡gina-1" id="8CF0Q0QWtExZTX1O9rfW">
    <mxGraphModel dx="1728" dy="2221" grid="1" gridSize="10" guides="1" tooltips="1" connect="1" arrows="1" fold="1" page="1" pageScale="1" pageWidth="826" pageHeight="1169" background="none" math="0" shadow="0">
      <root>
        <mxCell id="0" />
        <mxCell id="1" parent="0" />
        <mxCell id="qQ7JCVqUa35sdPKx2-S9-79" value="User" style="shape=table;startSize=30;container=1;collapsible=0;childLayout=tableLayout;strokeColor=#2D7600;fontSize=16;fillColor=#60a917;fontColor=#000000;gradientColor=default;rounded=1;" parent="1" vertex="1">
          <mxGeometry x="20" y="40" width="461" height="150" as="geometry" />
        </mxCell>
        <mxCell id="qQ7JCVqUa35sdPKx2-S9-80" value="" style="shape=tableRow;horizontal=0;startSize=0;swimlaneHead=0;swimlaneBody=0;strokeColor=inherit;top=0;left=0;bottom=0;right=0;collapsible=0;dropTarget=0;fillColor=none;points=[[0,0.5],[1,0.5]];portConstraint=eastwest;fontSize=16;" parent="qQ7JCVqUa35sdPKx2-S9-79" vertex="1">
          <mxGeometry y="30" width="461" height="40" as="geometry" />
        </mxCell>
        <mxCell id="707W7tSX6y3eDis5Wxwx-43" value="id" style="shape=partialRectangle;html=1;whiteSpace=wrap;connectable=0;strokeColor=inherit;overflow=hidden;fillColor=none;top=0;left=0;bottom=0;right=0;pointerEvents=1;fontSize=16;" parent="qQ7JCVqUa35sdPKx2-S9-80" vertex="1">
          <mxGeometry width="77" height="40" as="geometry">
            <mxRectangle width="77" height="40" as="alternateBounds" />
          </mxGeometry>
        </mxCell>
        <mxCell id="qQ7JCVqUa35sdPKx2-S9-81" value="name" style="shape=partialRectangle;html=1;whiteSpace=wrap;connectable=0;strokeColor=inherit;overflow=hidden;fillColor=none;top=0;left=0;bottom=0;right=0;pointerEvents=1;fontSize=16;" parent="qQ7JCVqUa35sdPKx2-S9-80" vertex="1">
          <mxGeometry x="77" width="77" height="40" as="geometry">
            <mxRectangle width="77" height="40" as="alternateBounds" />
          </mxGeometry>
        </mxCell>
        <mxCell id="qQ7JCVqUa35sdPKx2-S9-82" value="last_name" style="shape=partialRectangle;html=1;whiteSpace=wrap;connectable=0;strokeColor=inherit;overflow=hidden;fillColor=none;top=0;left=0;bottom=0;right=0;pointerEvents=1;fontSize=16;" parent="qQ7JCVqUa35sdPKx2-S9-80" vertex="1">
          <mxGeometry x="154" width="76" height="40" as="geometry">
            <mxRectangle width="76" height="40" as="alternateBounds" />
          </mxGeometry>
        </mxCell>
        <mxCell id="qQ7JCVqUa35sdPKx2-S9-83" value="addres" style="shape=partialRectangle;html=1;whiteSpace=wrap;connectable=0;strokeColor=inherit;overflow=hidden;fillColor=none;top=0;left=0;bottom=0;right=0;pointerEvents=1;fontSize=16;" parent="qQ7JCVqUa35sdPKx2-S9-80" vertex="1">
          <mxGeometry x="230" width="77" height="40" as="geometry">
            <mxRectangle width="77" height="40" as="alternateBounds" />
          </mxGeometry>
        </mxCell>
        <mxCell id="qQ7JCVqUa35sdPKx2-S9-92" value="email" style="shape=partialRectangle;html=1;whiteSpace=wrap;connectable=0;strokeColor=inherit;overflow=hidden;fillColor=none;top=0;left=0;bottom=0;right=0;pointerEvents=1;fontSize=16;" parent="qQ7JCVqUa35sdPKx2-S9-80" vertex="1">
          <mxGeometry x="307" width="77" height="40" as="geometry">
            <mxRectangle width="77" height="40" as="alternateBounds" />
          </mxGeometry>
        </mxCell>
        <mxCell id="qQ7JCVqUa35sdPKx2-S9-95" value="phone" style="shape=partialRectangle;html=1;whiteSpace=wrap;connectable=0;strokeColor=inherit;overflow=hidden;fillColor=none;top=0;left=0;bottom=0;right=0;pointerEvents=1;fontSize=16;" parent="qQ7JCVqUa35sdPKx2-S9-80" vertex="1">
          <mxGeometry x="384" width="77" height="40" as="geometry">
            <mxRectangle width="77" height="40" as="alternateBounds" />
          </mxGeometry>
        </mxCell>
        <mxCell id="qQ7JCVqUa35sdPKx2-S9-84" value="" style="shape=tableRow;horizontal=0;startSize=0;swimlaneHead=0;swimlaneBody=0;strokeColor=inherit;top=0;left=0;bottom=0;right=0;collapsible=0;dropTarget=0;fillColor=none;points=[[0,0.5],[1,0.5]];portConstraint=eastwest;fontSize=16;" parent="qQ7JCVqUa35sdPKx2-S9-79" vertex="1">
          <mxGeometry y="70" width="461" height="40" as="geometry" />
        </mxCell>
        <mxCell id="707W7tSX6y3eDis5Wxwx-44" style="shape=partialRectangle;html=1;whiteSpace=wrap;connectable=0;strokeColor=inherit;overflow=hidden;fillColor=none;top=0;left=0;bottom=0;right=0;pointerEvents=1;fontSize=16;" parent="qQ7JCVqUa35sdPKx2-S9-84" vertex="1">
          <mxGeometry width="77" height="40" as="geometry">
            <mxRectangle width="77" height="40" as="alternateBounds" />
          </mxGeometry>
        </mxCell>
        <mxCell id="qQ7JCVqUa35sdPKx2-S9-85" value="" style="shape=partialRectangle;html=1;whiteSpace=wrap;connectable=0;strokeColor=inherit;overflow=hidden;fillColor=none;top=0;left=0;bottom=0;right=0;pointerEvents=1;fontSize=16;" parent="qQ7JCVqUa35sdPKx2-S9-84" vertex="1">
          <mxGeometry x="77" width="77" height="40" as="geometry">
            <mxRectangle width="77" height="40" as="alternateBounds" />
          </mxGeometry>
        </mxCell>
        <mxCell id="qQ7JCVqUa35sdPKx2-S9-86" value="" style="shape=partialRectangle;html=1;whiteSpace=wrap;connectable=0;strokeColor=inherit;overflow=hidden;fillColor=none;top=0;left=0;bottom=0;right=0;pointerEvents=1;fontSize=16;" parent="qQ7JCVqUa35sdPKx2-S9-84" vertex="1">
          <mxGeometry x="154" width="76" height="40" as="geometry">
            <mxRectangle width="76" height="40" as="alternateBounds" />
          </mxGeometry>
        </mxCell>
        <mxCell id="qQ7JCVqUa35sdPKx2-S9-87" value="" style="shape=partialRectangle;html=1;whiteSpace=wrap;connectable=0;strokeColor=inherit;overflow=hidden;fillColor=none;top=0;left=0;bottom=0;right=0;pointerEvents=1;fontSize=16;" parent="qQ7JCVqUa35sdPKx2-S9-84" vertex="1">
          <mxGeometry x="230" width="77" height="40" as="geometry">
            <mxRectangle width="77" height="40" as="alternateBounds" />
          </mxGeometry>
        </mxCell>
        <mxCell id="qQ7JCVqUa35sdPKx2-S9-93" style="shape=partialRectangle;html=1;whiteSpace=wrap;connectable=0;strokeColor=inherit;overflow=hidden;fillColor=none;top=0;left=0;bottom=0;right=0;pointerEvents=1;fontSize=16;" parent="qQ7JCVqUa35sdPKx2-S9-84" vertex="1">
          <mxGeometry x="307" width="77" height="40" as="geometry">
            <mxRectangle width="77" height="40" as="alternateBounds" />
          </mxGeometry>
        </mxCell>
        <mxCell id="qQ7JCVqUa35sdPKx2-S9-96" style="shape=partialRectangle;html=1;whiteSpace=wrap;connectable=0;strokeColor=inherit;overflow=hidden;fillColor=none;top=0;left=0;bottom=0;right=0;pointerEvents=1;fontSize=16;" parent="qQ7JCVqUa35sdPKx2-S9-84" vertex="1">
          <mxGeometry x="384" width="77" height="40" as="geometry">
            <mxRectangle width="77" height="40" as="alternateBounds" />
          </mxGeometry>
        </mxCell>
        <mxCell id="qQ7JCVqUa35sdPKx2-S9-88" value="" style="shape=tableRow;horizontal=0;startSize=0;swimlaneHead=0;swimlaneBody=0;strokeColor=inherit;top=0;left=0;bottom=0;right=0;collapsible=0;dropTarget=0;fillColor=none;points=[[0,0.5],[1,0.5]];portConstraint=eastwest;fontSize=16;" parent="qQ7JCVqUa35sdPKx2-S9-79" vertex="1">
          <mxGeometry y="110" width="461" height="40" as="geometry" />
        </mxCell>
        <mxCell id="707W7tSX6y3eDis5Wxwx-45" style="shape=partialRectangle;html=1;whiteSpace=wrap;connectable=0;strokeColor=inherit;overflow=hidden;fillColor=none;top=0;left=0;bottom=0;right=0;pointerEvents=1;fontSize=16;" parent="qQ7JCVqUa35sdPKx2-S9-88" vertex="1">
          <mxGeometry width="77" height="40" as="geometry">
            <mxRectangle width="77" height="40" as="alternateBounds" />
          </mxGeometry>
        </mxCell>
        <mxCell id="qQ7JCVqUa35sdPKx2-S9-89" value="" style="shape=partialRectangle;html=1;whiteSpace=wrap;connectable=0;strokeColor=inherit;overflow=hidden;fillColor=none;top=0;left=0;bottom=0;right=0;pointerEvents=1;fontSize=16;" parent="qQ7JCVqUa35sdPKx2-S9-88" vertex="1">
          <mxGeometry x="77" width="77" height="40" as="geometry">
            <mxRectangle width="77" height="40" as="alternateBounds" />
          </mxGeometry>
        </mxCell>
        <mxCell id="qQ7JCVqUa35sdPKx2-S9-90" value="" style="shape=partialRectangle;html=1;whiteSpace=wrap;connectable=0;strokeColor=inherit;overflow=hidden;fillColor=none;top=0;left=0;bottom=0;right=0;pointerEvents=1;fontSize=16;" parent="qQ7JCVqUa35sdPKx2-S9-88" vertex="1">
          <mxGeometry x="154" width="76" height="40" as="geometry">
            <mxRectangle width="76" height="40" as="alternateBounds" />
          </mxGeometry>
        </mxCell>
        <mxCell id="qQ7JCVqUa35sdPKx2-S9-91" value="" style="shape=partialRectangle;html=1;whiteSpace=wrap;connectable=0;strokeColor=inherit;overflow=hidden;fillColor=none;top=0;left=0;bottom=0;right=0;pointerEvents=1;fontSize=16;" parent="qQ7JCVqUa35sdPKx2-S9-88" vertex="1">
          <mxGeometry x="230" width="77" height="40" as="geometry">
            <mxRectangle width="77" height="40" as="alternateBounds" />
          </mxGeometry>
        </mxCell>
        <mxCell id="qQ7JCVqUa35sdPKx2-S9-94" style="shape=partialRectangle;html=1;whiteSpace=wrap;connectable=0;strokeColor=inherit;overflow=hidden;fillColor=none;top=0;left=0;bottom=0;right=0;pointerEvents=1;fontSize=16;" parent="qQ7JCVqUa35sdPKx2-S9-88" vertex="1">
          <mxGeometry x="307" width="77" height="40" as="geometry">
            <mxRectangle width="77" height="40" as="alternateBounds" />
          </mxGeometry>
        </mxCell>
        <mxCell id="qQ7JCVqUa35sdPKx2-S9-97" style="shape=partialRectangle;html=1;whiteSpace=wrap;connectable=0;strokeColor=inherit;overflow=hidden;fillColor=none;top=0;left=0;bottom=0;right=0;pointerEvents=1;fontSize=16;" parent="qQ7JCVqUa35sdPKx2-S9-88" vertex="1">
          <mxGeometry x="384" width="77" height="40" as="geometry">
            <mxRectangle width="77" height="40" as="alternateBounds" />
          </mxGeometry>
        </mxCell>
        <mxCell id="qQ7JCVqUa35sdPKx2-S9-114" value="" style="whiteSpace=wrap;html=1;" parent="qQ7JCVqUa35sdPKx2-S9-88" vertex="1">
          <mxGeometry x="461" height="40" as="geometry">
            <mxRectangle width="NaN" height="40" as="alternateBounds" />
          </mxGeometry>
        </mxCell>
        <mxCell id="PAi8oHcWn7Akl2B9511x-67" value="Product" style="shape=table;startSize=30;container=1;collapsible=0;childLayout=tableLayout;strokeColor=#2D7600;fontSize=16;fillColor=#60a917;fontColor=#000000;rounded=1;gradientColor=default;" parent="1" vertex="1">
          <mxGeometry x="570" y="40" width="230" height="150" as="geometry" />
        </mxCell>
        <mxCell id="PAi8oHcWn7Akl2B9511x-68" value="" style="shape=tableRow;horizontal=0;startSize=0;swimlaneHead=0;swimlaneBody=0;strokeColor=inherit;top=0;left=0;bottom=0;right=0;collapsible=0;dropTarget=0;fillColor=none;points=[[0,0.5],[1,0.5]];portConstraint=eastwest;fontSize=16;" parent="PAi8oHcWn7Akl2B9511x-67" vertex="1">
          <mxGeometry y="30" width="230" height="40" as="geometry" />
        </mxCell>
        <mxCell id="707W7tSX6y3eDis5Wxwx-46" value="id" style="shape=partialRectangle;html=1;whiteSpace=wrap;connectable=0;strokeColor=inherit;overflow=hidden;fillColor=none;top=0;left=0;bottom=0;right=0;pointerEvents=1;fontSize=16;" parent="PAi8oHcWn7Akl2B9511x-68" vertex="1">
          <mxGeometry width="77" height="40" as="geometry">
            <mxRectangle width="77" height="40" as="alternateBounds" />
          </mxGeometry>
        </mxCell>
        <mxCell id="PAi8oHcWn7Akl2B9511x-69" value="quantity" style="shape=partialRectangle;html=1;whiteSpace=wrap;connectable=0;strokeColor=inherit;overflow=hidden;fillColor=none;top=0;left=0;bottom=0;right=0;pointerEvents=1;fontSize=16;" parent="PAi8oHcWn7Akl2B9511x-68" vertex="1">
          <mxGeometry x="77" width="77" height="40" as="geometry">
            <mxRectangle width="77" height="40" as="alternateBounds" />
          </mxGeometry>
        </mxCell>
        <mxCell id="PAi8oHcWn7Akl2B9511x-70" value="value" style="shape=partialRectangle;html=1;whiteSpace=wrap;connectable=0;strokeColor=inherit;overflow=hidden;fillColor=none;top=0;left=0;bottom=0;right=0;pointerEvents=1;fontSize=16;" parent="PAi8oHcWn7Akl2B9511x-68" vertex="1">
          <mxGeometry x="154" width="76" height="40" as="geometry">
            <mxRectangle width="76" height="40" as="alternateBounds" />
          </mxGeometry>
        </mxCell>
        <mxCell id="PAi8oHcWn7Akl2B9511x-74" value="" style="shape=tableRow;horizontal=0;startSize=0;swimlaneHead=0;swimlaneBody=0;strokeColor=inherit;top=0;left=0;bottom=0;right=0;collapsible=0;dropTarget=0;fillColor=none;points=[[0,0.5],[1,0.5]];portConstraint=eastwest;fontSize=16;" parent="PAi8oHcWn7Akl2B9511x-67" vertex="1">
          <mxGeometry y="70" width="230" height="40" as="geometry" />
        </mxCell>
        <mxCell id="707W7tSX6y3eDis5Wxwx-47" style="shape=partialRectangle;html=1;whiteSpace=wrap;connectable=0;strokeColor=inherit;overflow=hidden;fillColor=none;top=0;left=0;bottom=0;right=0;pointerEvents=1;fontSize=16;" parent="PAi8oHcWn7Akl2B9511x-74" vertex="1">
          <mxGeometry width="77" height="40" as="geometry">
            <mxRectangle width="77" height="40" as="alternateBounds" />
          </mxGeometry>
        </mxCell>
        <mxCell id="PAi8oHcWn7Akl2B9511x-75" value="" style="shape=partialRectangle;html=1;whiteSpace=wrap;connectable=0;strokeColor=inherit;overflow=hidden;fillColor=none;top=0;left=0;bottom=0;right=0;pointerEvents=1;fontSize=16;" parent="PAi8oHcWn7Akl2B9511x-74" vertex="1">
          <mxGeometry x="77" width="77" height="40" as="geometry">
            <mxRectangle width="77" height="40" as="alternateBounds" />
          </mxGeometry>
        </mxCell>
        <mxCell id="PAi8oHcWn7Akl2B9511x-76" value="" style="shape=partialRectangle;html=1;whiteSpace=wrap;connectable=0;strokeColor=inherit;overflow=hidden;fillColor=none;top=0;left=0;bottom=0;right=0;pointerEvents=1;fontSize=16;" parent="PAi8oHcWn7Akl2B9511x-74" vertex="1">
          <mxGeometry x="154" width="76" height="40" as="geometry">
            <mxRectangle width="76" height="40" as="alternateBounds" />
          </mxGeometry>
        </mxCell>
        <mxCell id="PAi8oHcWn7Akl2B9511x-80" value="" style="shape=tableRow;horizontal=0;startSize=0;swimlaneHead=0;swimlaneBody=0;strokeColor=inherit;top=0;left=0;bottom=0;right=0;collapsible=0;dropTarget=0;fillColor=none;points=[[0,0.5],[1,0.5]];portConstraint=eastwest;fontSize=16;" parent="PAi8oHcWn7Akl2B9511x-67" vertex="1">
          <mxGeometry y="110" width="230" height="40" as="geometry" />
        </mxCell>
        <mxCell id="707W7tSX6y3eDis5Wxwx-48" style="shape=partialRectangle;html=1;whiteSpace=wrap;connectable=0;strokeColor=inherit;overflow=hidden;fillColor=none;top=0;left=0;bottom=0;right=0;pointerEvents=1;fontSize=16;" parent="PAi8oHcWn7Akl2B9511x-80" vertex="1">
          <mxGeometry width="77" height="40" as="geometry">
            <mxRectangle width="77" height="40" as="alternateBounds" />
          </mxGeometry>
        </mxCell>
        <mxCell id="PAi8oHcWn7Akl2B9511x-81" value="" style="shape=partialRectangle;html=1;whiteSpace=wrap;connectable=0;strokeColor=inherit;overflow=hidden;fillColor=none;top=0;left=0;bottom=0;right=0;pointerEvents=1;fontSize=16;" parent="PAi8oHcWn7Akl2B9511x-80" vertex="1">
          <mxGeometry x="77" width="77" height="40" as="geometry">
            <mxRectangle width="77" height="40" as="alternateBounds" />
          </mxGeometry>
        </mxCell>
        <mxCell id="PAi8oHcWn7Akl2B9511x-82" value="" style="shape=partialRectangle;html=1;whiteSpace=wrap;connectable=0;strokeColor=inherit;overflow=hidden;fillColor=none;top=0;left=0;bottom=0;right=0;pointerEvents=1;fontSize=16;" parent="PAi8oHcWn7Akl2B9511x-80" vertex="1">
          <mxGeometry x="154" width="76" height="40" as="geometry">
            <mxRectangle width="76" height="40" as="alternateBounds" />
          </mxGeometry>
        </mxCell>
        <mxCell id="PAi8oHcWn7Akl2B9511x-86" value="" style="whiteSpace=wrap;html=1;" parent="PAi8oHcWn7Akl2B9511x-80" vertex="1">
          <mxGeometry x="230" width="NaN" height="40" as="geometry">
            <mxRectangle width="NaN" height="40" as="alternateBounds" />
          </mxGeometry>
        </mxCell>
        <mxCell id="PAi8oHcWn7Akl2B9511x-87" value="Category" style="shape=table;startSize=30;container=1;collapsible=0;childLayout=tableLayout;strokeColor=#2D7600;fontSize=16;fillColor=#60a917;fontColor=#000000;rounded=1;gradientColor=default;" parent="1" vertex="1">
          <mxGeometry x="570" y="240" width="230" height="150" as="geometry" />
        </mxCell>
        <mxCell id="PAi8oHcWn7Akl2B9511x-88" value="" style="shape=tableRow;horizontal=0;startSize=0;swimlaneHead=0;swimlaneBody=0;strokeColor=inherit;top=0;left=0;bottom=0;right=0;collapsible=0;dropTarget=0;fillColor=none;points=[[0,0.5],[1,0.5]];portConstraint=eastwest;fontSize=16;" parent="PAi8oHcWn7Akl2B9511x-87" vertex="1">
          <mxGeometry y="30" width="230" height="40" as="geometry" />
        </mxCell>
        <mxCell id="707W7tSX6y3eDis5Wxwx-49" value="id" style="shape=partialRectangle;html=1;whiteSpace=wrap;connectable=0;strokeColor=inherit;overflow=hidden;fillColor=none;top=0;left=0;bottom=0;right=0;pointerEvents=1;fontSize=16;" parent="PAi8oHcWn7Akl2B9511x-88" vertex="1">
          <mxGeometry width="77" height="40" as="geometry">
            <mxRectangle width="77" height="40" as="alternateBounds" />
          </mxGeometry>
        </mxCell>
        <mxCell id="PAi8oHcWn7Akl2B9511x-89" value="quantity" style="shape=partialRectangle;html=1;whiteSpace=wrap;connectable=0;strokeColor=inherit;overflow=hidden;fillColor=none;top=0;left=0;bottom=0;right=0;pointerEvents=1;fontSize=16;" parent="PAi8oHcWn7Akl2B9511x-88" vertex="1">
          <mxGeometry x="77" width="77" height="40" as="geometry">
            <mxRectangle width="77" height="40" as="alternateBounds" />
          </mxGeometry>
        </mxCell>
        <mxCell id="PAi8oHcWn7Akl2B9511x-90" value="value" style="shape=partialRectangle;html=1;whiteSpace=wrap;connectable=0;strokeColor=inherit;overflow=hidden;fillColor=none;top=0;left=0;bottom=0;right=0;pointerEvents=1;fontSize=16;" parent="PAi8oHcWn7Akl2B9511x-88" vertex="1">
          <mxGeometry x="154" width="76" height="40" as="geometry">
            <mxRectangle width="76" height="40" as="alternateBounds" />
          </mxGeometry>
        </mxCell>
        <mxCell id="PAi8oHcWn7Akl2B9511x-91" value="" style="shape=tableRow;horizontal=0;startSize=0;swimlaneHead=0;swimlaneBody=0;strokeColor=inherit;top=0;left=0;bottom=0;right=0;collapsible=0;dropTarget=0;fillColor=none;points=[[0,0.5],[1,0.5]];portConstraint=eastwest;fontSize=16;" parent="PAi8oHcWn7Akl2B9511x-87" vertex="1">
          <mxGeometry y="70" width="230" height="40" as="geometry" />
        </mxCell>
        <mxCell id="707W7tSX6y3eDis5Wxwx-50" style="shape=partialRectangle;html=1;whiteSpace=wrap;connectable=0;strokeColor=inherit;overflow=hidden;fillColor=none;top=0;left=0;bottom=0;right=0;pointerEvents=1;fontSize=16;" parent="PAi8oHcWn7Akl2B9511x-91" vertex="1">
          <mxGeometry width="77" height="40" as="geometry">
            <mxRectangle width="77" height="40" as="alternateBounds" />
          </mxGeometry>
        </mxCell>
        <mxCell id="PAi8oHcWn7Akl2B9511x-92" value="" style="shape=partialRectangle;html=1;whiteSpace=wrap;connectable=0;strokeColor=inherit;overflow=hidden;fillColor=none;top=0;left=0;bottom=0;right=0;pointerEvents=1;fontSize=16;" parent="PAi8oHcWn7Akl2B9511x-91" vertex="1">
          <mxGeometry x="77" width="77" height="40" as="geometry">
            <mxRectangle width="77" height="40" as="alternateBounds" />
          </mxGeometry>
        </mxCell>
        <mxCell id="PAi8oHcWn7Akl2B9511x-93" value="" style="shape=partialRectangle;html=1;whiteSpace=wrap;connectable=0;strokeColor=inherit;overflow=hidden;fillColor=none;top=0;left=0;bottom=0;right=0;pointerEvents=1;fontSize=16;" parent="PAi8oHcWn7Akl2B9511x-91" vertex="1">
          <mxGeometry x="154" width="76" height="40" as="geometry">
            <mxRectangle width="76" height="40" as="alternateBounds" />
          </mxGeometry>
        </mxCell>
        <mxCell id="PAi8oHcWn7Akl2B9511x-94" value="" style="shape=tableRow;horizontal=0;startSize=0;swimlaneHead=0;swimlaneBody=0;strokeColor=inherit;top=0;left=0;bottom=0;right=0;collapsible=0;dropTarget=0;fillColor=none;points=[[0,0.5],[1,0.5]];portConstraint=eastwest;fontSize=16;" parent="PAi8oHcWn7Akl2B9511x-87" vertex="1">
          <mxGeometry y="110" width="230" height="40" as="geometry" />
        </mxCell>
        <mxCell id="707W7tSX6y3eDis5Wxwx-51" style="shape=partialRectangle;html=1;whiteSpace=wrap;connectable=0;strokeColor=inherit;overflow=hidden;fillColor=none;top=0;left=0;bottom=0;right=0;pointerEvents=1;fontSize=16;" parent="PAi8oHcWn7Akl2B9511x-94" vertex="1">
          <mxGeometry width="77" height="40" as="geometry">
            <mxRectangle width="77" height="40" as="alternateBounds" />
          </mxGeometry>
        </mxCell>
        <mxCell id="PAi8oHcWn7Akl2B9511x-95" value="" style="shape=partialRectangle;html=1;whiteSpace=wrap;connectable=0;strokeColor=inherit;overflow=hidden;fillColor=none;top=0;left=0;bottom=0;right=0;pointerEvents=1;fontSize=16;" parent="PAi8oHcWn7Akl2B9511x-94" vertex="1">
          <mxGeometry x="77" width="77" height="40" as="geometry">
            <mxRectangle width="77" height="40" as="alternateBounds" />
          </mxGeometry>
        </mxCell>
        <mxCell id="PAi8oHcWn7Akl2B9511x-96" value="" style="shape=partialRectangle;html=1;whiteSpace=wrap;connectable=0;strokeColor=inherit;overflow=hidden;fillColor=none;top=0;left=0;bottom=0;right=0;pointerEvents=1;fontSize=16;" parent="PAi8oHcWn7Akl2B9511x-94" vertex="1">
          <mxGeometry x="154" width="76" height="40" as="geometry">
            <mxRectangle width="76" height="40" as="alternateBounds" />
          </mxGeometry>
        </mxCell>
        <mxCell id="PAi8oHcWn7Akl2B9511x-97" value="" style="whiteSpace=wrap;html=1;" parent="PAi8oHcWn7Akl2B9511x-94" vertex="1">
          <mxGeometry x="230" width="NaN" height="40" as="geometry">
            <mxRectangle width="NaN" height="40" as="alternateBounds" />
          </mxGeometry>
        </mxCell>
        <mxCell id="PAi8oHcWn7Akl2B9511x-98" value="Shopp" style="shape=table;startSize=30;container=1;collapsible=0;childLayout=tableLayout;strokeColor=#2D7600;fontSize=16;fillColor=#60a917;fontColor=#000000;rounded=1;gradientColor=default;" parent="1" vertex="1">
          <mxGeometry x="251" y="240" width="230" height="150" as="geometry" />
        </mxCell>
        <mxCell id="PAi8oHcWn7Akl2B9511x-99" value="" style="shape=tableRow;horizontal=0;startSize=0;swimlaneHead=0;swimlaneBody=0;strokeColor=inherit;top=0;left=0;bottom=0;right=0;collapsible=0;dropTarget=0;fillColor=none;points=[[0,0.5],[1,0.5]];portConstraint=eastwest;fontSize=16;" parent="PAi8oHcWn7Akl2B9511x-98" vertex="1">
          <mxGeometry y="30" width="230" height="40" as="geometry" />
        </mxCell>
        <mxCell id="707W7tSX6y3eDis5Wxwx-52" value="id" style="shape=partialRectangle;html=1;whiteSpace=wrap;connectable=0;strokeColor=inherit;overflow=hidden;fillColor=none;top=0;left=0;bottom=0;right=0;pointerEvents=1;fontSize=16;" parent="PAi8oHcWn7Akl2B9511x-99" vertex="1">
          <mxGeometry width="70" height="40" as="geometry">
            <mxRectangle width="70" height="40" as="alternateBounds" />
          </mxGeometry>
        </mxCell>
        <mxCell id="PAi8oHcWn7Akl2B9511x-100" value="quantity" style="shape=partialRectangle;html=1;whiteSpace=wrap;connectable=0;strokeColor=inherit;overflow=hidden;fillColor=none;top=0;left=0;bottom=0;right=0;pointerEvents=1;fontSize=16;" parent="PAi8oHcWn7Akl2B9511x-99" vertex="1">
          <mxGeometry x="70" width="84" height="40" as="geometry">
            <mxRectangle width="84" height="40" as="alternateBounds" />
          </mxGeometry>
        </mxCell>
        <mxCell id="PAi8oHcWn7Akl2B9511x-101" value="value" style="shape=partialRectangle;html=1;whiteSpace=wrap;connectable=0;strokeColor=inherit;overflow=hidden;fillColor=none;top=0;left=0;bottom=0;right=0;pointerEvents=1;fontSize=16;" parent="PAi8oHcWn7Akl2B9511x-99" vertex="1">
          <mxGeometry x="154" width="76" height="40" as="geometry">
            <mxRectangle width="76" height="40" as="alternateBounds" />
          </mxGeometry>
        </mxCell>
        <mxCell id="PAi8oHcWn7Akl2B9511x-102" value="" style="shape=tableRow;horizontal=0;startSize=0;swimlaneHead=0;swimlaneBody=0;strokeColor=inherit;top=0;left=0;bottom=0;right=0;collapsible=0;dropTarget=0;fillColor=none;points=[[0,0.5],[1,0.5]];portConstraint=eastwest;fontSize=16;" parent="PAi8oHcWn7Akl2B9511x-98" vertex="1">
          <mxGeometry y="70" width="230" height="40" as="geometry" />
        </mxCell>
        <mxCell id="707W7tSX6y3eDis5Wxwx-53" style="shape=partialRectangle;html=1;whiteSpace=wrap;connectable=0;strokeColor=inherit;overflow=hidden;fillColor=none;top=0;left=0;bottom=0;right=0;pointerEvents=1;fontSize=16;" parent="PAi8oHcWn7Akl2B9511x-102" vertex="1">
          <mxGeometry width="70" height="40" as="geometry">
            <mxRectangle width="70" height="40" as="alternateBounds" />
          </mxGeometry>
        </mxCell>
        <mxCell id="PAi8oHcWn7Akl2B9511x-103" value="" style="shape=partialRectangle;html=1;whiteSpace=wrap;connectable=0;strokeColor=inherit;overflow=hidden;fillColor=none;top=0;left=0;bottom=0;right=0;pointerEvents=1;fontSize=16;" parent="PAi8oHcWn7Akl2B9511x-102" vertex="1">
          <mxGeometry x="70" width="84" height="40" as="geometry">
            <mxRectangle width="84" height="40" as="alternateBounds" />
          </mxGeometry>
        </mxCell>
        <mxCell id="PAi8oHcWn7Akl2B9511x-104" value="" style="shape=partialRectangle;html=1;whiteSpace=wrap;connectable=0;strokeColor=inherit;overflow=hidden;fillColor=none;top=0;left=0;bottom=0;right=0;pointerEvents=1;fontSize=16;" parent="PAi8oHcWn7Akl2B9511x-102" vertex="1">
          <mxGeometry x="154" width="76" height="40" as="geometry">
            <mxRectangle width="76" height="40" as="alternateBounds" />
          </mxGeometry>
        </mxCell>
        <mxCell id="PAi8oHcWn7Akl2B9511x-105" value="" style="shape=tableRow;horizontal=0;startSize=0;swimlaneHead=0;swimlaneBody=0;strokeColor=inherit;top=0;left=0;bottom=0;right=0;collapsible=0;dropTarget=0;fillColor=none;points=[[0,0.5],[1,0.5]];portConstraint=eastwest;fontSize=16;" parent="PAi8oHcWn7Akl2B9511x-98" vertex="1">
          <mxGeometry y="110" width="230" height="40" as="geometry" />
        </mxCell>
        <mxCell id="707W7tSX6y3eDis5Wxwx-54" style="shape=partialRectangle;html=1;whiteSpace=wrap;connectable=0;strokeColor=inherit;overflow=hidden;fillColor=none;top=0;left=0;bottom=0;right=0;pointerEvents=1;fontSize=16;" parent="PAi8oHcWn7Akl2B9511x-105" vertex="1">
          <mxGeometry width="70" height="40" as="geometry">
            <mxRectangle width="70" height="40" as="alternateBounds" />
          </mxGeometry>
        </mxCell>
        <mxCell id="PAi8oHcWn7Akl2B9511x-106" value="" style="shape=partialRectangle;html=1;whiteSpace=wrap;connectable=0;strokeColor=inherit;overflow=hidden;fillColor=none;top=0;left=0;bottom=0;right=0;pointerEvents=1;fontSize=16;" parent="PAi8oHcWn7Akl2B9511x-105" vertex="1">
          <mxGeometry x="70" width="84" height="40" as="geometry">
            <mxRectangle width="84" height="40" as="alternateBounds" />
          </mxGeometry>
        </mxCell>
        <mxCell id="PAi8oHcWn7Akl2B9511x-107" value="" style="shape=partialRectangle;html=1;whiteSpace=wrap;connectable=0;strokeColor=inherit;overflow=hidden;fillColor=none;top=0;left=0;bottom=0;right=0;pointerEvents=1;fontSize=16;" parent="PAi8oHcWn7Akl2B9511x-105" vertex="1">
          <mxGeometry x="154" width="76" height="40" as="geometry">
            <mxRectangle width="76" height="40" as="alternateBounds" />
          </mxGeometry>
        </mxCell>
        <mxCell id="PAi8oHcWn7Akl2B9511x-108" value="" style="whiteSpace=wrap;html=1;" parent="PAi8oHcWn7Akl2B9511x-105" vertex="1">
          <mxGeometry x="230" width="NaN" height="40" as="geometry">
            <mxRectangle width="NaN" height="40" as="alternateBounds" />
          </mxGeometry>
        </mxCell>
        <mxCell id="E7H6Xlp2fev-B4NN_4Y5-2" style="edgeStyle=none;rounded=0;orthogonalLoop=1;jettySize=auto;html=1;exitX=0.5;exitY=1;exitDx=0;exitDy=0;fillColor=#0050ef;strokeColor=#001DBC;strokeWidth=4;" edge="1" parent="1" source="E7H6Xlp2fev-B4NN_4Y5-6" target="E7H6Xlp2fev-B4NN_4Y5-20">
          <mxGeometry relative="1" as="geometry" />
        </mxCell>
        <mxCell id="E7H6Xlp2fev-B4NN_4Y5-3" value="M a 1" style="edgeLabel;html=1;align=center;verticalAlign=middle;resizable=0;points=[];" vertex="1" connectable="0" parent="E7H6Xlp2fev-B4NN_4Y5-2">
          <mxGeometry x="-0.4857" y="2" relative="1" as="geometry">
            <mxPoint as="offset" />
          </mxGeometry>
        </mxCell>
        <mxCell id="E7H6Xlp2fev-B4NN_4Y5-4" style="edgeStyle=none;rounded=0;orthogonalLoop=1;jettySize=auto;html=1;exitX=1;exitY=1;exitDx=0;exitDy=0;fillColor=#008a00;strokeColor=#005700;strokeWidth=4;entryX=1;entryY=0.5;entryDx=0;entryDy=0;" edge="1" parent="1" source="E7H6Xlp2fev-B4NN_4Y5-6" target="E7H6Xlp2fev-B4NN_4Y5-21">
          <mxGeometry relative="1" as="geometry">
            <mxPoint x="658.67" y="-490" as="targetPoint" />
            <Array as="points">
              <mxPoint x="738.67" y="-600" />
            </Array>
          </mxGeometry>
        </mxCell>
        <mxCell id="E7H6Xlp2fev-B4NN_4Y5-5" value="1 a 1" style="edgeLabel;html=1;align=center;verticalAlign=middle;resizable=0;points=[];" vertex="1" connectable="0" parent="E7H6Xlp2fev-B4NN_4Y5-4">
          <mxGeometry x="0.4468" y="-4" relative="1" as="geometry">
            <mxPoint x="42" y="-54" as="offset" />
          </mxGeometry>
        </mxCell>
        <mxCell id="E7H6Xlp2fev-B4NN_4Y5-6" value="&lt;font style=&quot;font-size: 17px;&quot;&gt;Users&lt;/font&gt;" style="rounded=1;whiteSpace=wrap;html=1;" vertex="1" parent="1">
          <mxGeometry x="500.00000000000006" y="-790" width="140" height="60" as="geometry" />
        </mxCell>
        <mxCell id="E7H6Xlp2fev-B4NN_4Y5-7" style="edgeStyle=none;rounded=0;orthogonalLoop=1;jettySize=auto;html=1;exitX=0.5;exitY=1;exitDx=0;exitDy=0;fillColor=#0050ef;strokeColor=#001DBC;strokeWidth=4;" edge="1" parent="1" source="E7H6Xlp2fev-B4NN_4Y5-11" target="E7H6Xlp2fev-B4NN_4Y5-19">
          <mxGeometry relative="1" as="geometry" />
        </mxCell>
        <mxCell id="E7H6Xlp2fev-B4NN_4Y5-8" value="1 a M" style="edgeLabel;html=1;align=center;verticalAlign=middle;resizable=0;points=[];" vertex="1" connectable="0" parent="E7H6Xlp2fev-B4NN_4Y5-7">
          <mxGeometry x="-0.4007" y="1" relative="1" as="geometry">
            <mxPoint as="offset" />
          </mxGeometry>
        </mxCell>
        <mxCell id="E7H6Xlp2fev-B4NN_4Y5-9" style="edgeStyle=none;rounded=0;orthogonalLoop=1;jettySize=auto;html=1;strokeWidth=4;fillColor=#0050ef;strokeColor=#001DBC;" edge="1" parent="1" source="E7H6Xlp2fev-B4NN_4Y5-11" target="E7H6Xlp2fev-B4NN_4Y5-6">
          <mxGeometry relative="1" as="geometry" />
        </mxCell>
        <mxCell id="E7H6Xlp2fev-B4NN_4Y5-10" value="1 a M" style="edgeLabel;html=1;align=center;verticalAlign=middle;resizable=0;points=[];" vertex="1" connectable="0" parent="E7H6Xlp2fev-B4NN_4Y5-9">
          <mxGeometry x="0.113" y="4" relative="1" as="geometry">
            <mxPoint x="-28" y="4" as="offset" />
          </mxGeometry>
        </mxCell>
        <mxCell id="E7H6Xlp2fev-B4NN_4Y5-11" value="&lt;font style=&quot;font-size: 17px;&quot;&gt;Review&lt;/font&gt;" style="rounded=1;whiteSpace=wrap;html=1;" vertex="1" parent="1">
          <mxGeometry x="145" y="-790" width="125" height="60" as="geometry" />
        </mxCell>
        <mxCell id="E7H6Xlp2fev-B4NN_4Y5-12" value="&lt;font style=&quot;font-size: 17px;&quot;&gt;Categorias&lt;/font&gt;" style="rounded=1;whiteSpace=wrap;html=1;" vertex="1" parent="1">
          <mxGeometry x="145" y="-500" width="120" height="60" as="geometry" />
        </mxCell>
        <mxCell id="E7H6Xlp2fev-B4NN_4Y5-13" style="rounded=0;orthogonalLoop=1;jettySize=auto;html=1;exitX=1;exitY=0.5;exitDx=0;exitDy=0;fillColor=#a20025;strokeColor=#6F0000;strokeWidth=4;" edge="1" parent="1" source="E7H6Xlp2fev-B4NN_4Y5-19" target="E7H6Xlp2fev-B4NN_4Y5-20">
          <mxGeometry relative="1" as="geometry" />
        </mxCell>
        <mxCell id="E7H6Xlp2fev-B4NN_4Y5-14" value="M a N" style="edgeLabel;html=1;align=center;verticalAlign=middle;resizable=0;points=[];" vertex="1" connectable="0" parent="E7H6Xlp2fev-B4NN_4Y5-13">
          <mxGeometry x="-0.3" y="3" relative="1" as="geometry">
            <mxPoint x="19" y="3" as="offset" />
          </mxGeometry>
        </mxCell>
        <mxCell id="E7H6Xlp2fev-B4NN_4Y5-15" style="edgeStyle=none;rounded=0;orthogonalLoop=1;jettySize=auto;html=1;exitX=0.5;exitY=1;exitDx=0;exitDy=0;fillColor=#a20025;strokeColor=#6F0000;strokeWidth=4;" edge="1" parent="1" source="E7H6Xlp2fev-B4NN_4Y5-19" target="E7H6Xlp2fev-B4NN_4Y5-12">
          <mxGeometry relative="1" as="geometry" />
        </mxCell>
        <mxCell id="E7H6Xlp2fev-B4NN_4Y5-16" value="M a N" style="edgeLabel;html=1;align=center;verticalAlign=middle;resizable=0;points=[];" vertex="1" connectable="0" parent="E7H6Xlp2fev-B4NN_4Y5-15">
          <mxGeometry x="-0.2273" y="1" relative="1" as="geometry">
            <mxPoint as="offset" />
          </mxGeometry>
        </mxCell>
        <mxCell id="E7H6Xlp2fev-B4NN_4Y5-17" style="edgeStyle=none;rounded=0;orthogonalLoop=1;jettySize=auto;html=1;exitX=1;exitY=1;exitDx=0;exitDy=0;entryX=0;entryY=0;entryDx=0;entryDy=0;fillColor=#a20025;strokeColor=#6F0000;strokeWidth=4;" edge="1" parent="1" source="E7H6Xlp2fev-B4NN_4Y5-19" target="E7H6Xlp2fev-B4NN_4Y5-21">
          <mxGeometry relative="1" as="geometry" />
        </mxCell>
        <mxCell id="E7H6Xlp2fev-B4NN_4Y5-18" value="M a N" style="edgeLabel;html=1;align=center;verticalAlign=middle;resizable=0;points=[];" vertex="1" connectable="0" parent="E7H6Xlp2fev-B4NN_4Y5-17">
          <mxGeometry x="-0.1589" y="4" relative="1" as="geometry">
            <mxPoint x="2" as="offset" />
          </mxGeometry>
        </mxCell>
        <mxCell id="E7H6Xlp2fev-B4NN_4Y5-19" value="&lt;font style=&quot;font-size: 17px;&quot;&gt;Products&lt;/font&gt;" style="rounded=1;whiteSpace=wrap;html=1;" vertex="1" parent="1">
          <mxGeometry x="140" y="-660" width="130" height="60" as="geometry" />
        </mxCell>
        <mxCell id="E7H6Xlp2fev-B4NN_4Y5-20" value="&lt;font style=&quot;font-size: 17px;&quot;&gt;Transations&lt;/font&gt;" style="rounded=1;whiteSpace=wrap;html=1;" vertex="1" parent="1">
          <mxGeometry x="510.00000000000006" y="-660" width="120" height="60" as="geometry" />
        </mxCell>
        <mxCell id="E7H6Xlp2fev-B4NN_4Y5-21" value="&lt;font style=&quot;font-size: 17px;&quot;&gt;Cart&lt;/font&gt;" style="rounded=1;whiteSpace=wrap;html=1;" vertex="1" parent="1">
          <mxGeometry x="500.00000000000006" y="-500" width="140" height="60" as="geometry" />
        </mxCell>
        <mxCell id="E7H6Xlp2fev-B4NN_4Y5-22" value="&lt;b&gt;&lt;font style=&quot;font-size: 24px;&quot;&gt;ESQUEMA DE RELACIONES&lt;/font&gt;&lt;/b&gt;" style="text;html=1;align=center;verticalAlign=middle;resizable=0;points=[];autosize=1;strokeColor=#B09500;fillColor=#e3c800;fontColor=#000000;perimeterSpacing=6;" vertex="1" parent="1">
          <mxGeometry x="220.00000000000003" y="-980" width="350" height="40" as="geometry" />
        </mxCell>
      </root>
    </mxGraphModel>
  </diagram>
</mxfile>
